<svg width="175" height="175" viewBox="0 0 175 175" fill="none" xmlns="http://www.w3.org/2000/svg">
<path d="M90.415 2.52339L90.1377 6.51376L88.8907 6.42711L89.168 2.43673L90.415 2.52339ZM93.3171 2.72506L93.0398 6.71544L91.7928 6.62878L92.0701 2.63841L93.3171 2.72506Z" fill="black"/>
<path d="M117.255 11.8755L115.924 11.4107C115.98 11.0006 115.959 10.6164 115.864 10.258C115.772 9.90091 115.621 9.57529 115.411 9.28115C115.205 8.98469 114.952 8.72768 114.651 8.5101C114.35 8.29253 114.017 8.12002 113.652 7.99257C112.987 7.76017 112.326 7.7177 111.668 7.86516C111.014 8.01387 110.414 8.35981 109.867 8.90299C109.324 9.44742 108.886 10.1952 108.554 11.1464C108.221 12.0976 108.098 12.9553 108.184 13.7197C108.274 14.4853 108.528 15.1298 108.947 15.6534C109.369 16.1782 109.913 16.5568 110.578 16.7892C110.943 16.9167 111.311 16.989 111.682 17.0064C112.053 17.0237 112.411 16.9821 112.755 16.8817C113.104 16.7789 113.425 16.6164 113.72 16.3942C114.019 16.1697 114.274 15.8817 114.485 15.5301L115.815 15.9949C115.519 16.5214 115.161 16.9601 114.742 17.311C114.322 17.6619 113.861 17.9242 113.359 18.0979C112.858 18.268 112.335 18.3479 111.789 18.3376C111.246 18.3286 110.698 18.2273 110.144 18.0336C109.207 17.7062 108.453 17.1863 107.884 16.4737C107.314 15.7611 106.968 14.9097 106.844 13.9196C106.721 12.9295 106.862 11.8552 107.266 10.6966C107.671 9.53801 108.23 8.60987 108.943 7.91215C109.657 7.21443 110.458 6.76417 111.347 6.56135C112.237 6.35853 113.15 6.4208 114.087 6.74817C114.641 6.94184 115.133 7.20409 115.563 7.53494C115.997 7.86703 116.356 8.25735 116.641 8.70589C116.927 9.15086 117.125 9.64127 117.234 10.1771C117.345 10.7094 117.352 11.2756 117.255 11.8755Z" fill="black"/>
<path d="M122.131 23.3149C121.448 22.9228 120.941 22.4162 120.612 21.795C120.286 21.1756 120.146 20.4906 120.193 19.7399C120.242 18.9911 120.492 18.2257 120.94 17.4437C121.393 16.6552 121.93 16.0489 122.554 15.6248C123.18 15.2025 123.843 14.9758 124.542 14.9446C125.245 14.9153 125.938 15.0967 126.621 15.4888C127.304 15.8809 127.809 16.3866 128.135 17.0059C128.464 17.6271 128.603 18.3138 128.551 19.0659C128.503 19.8199 128.253 20.5911 127.8 21.3797C127.352 22.1616 126.815 22.7621 126.19 23.181C125.569 23.6018 124.907 23.8269 124.205 23.8562C123.506 23.8874 122.814 23.707 122.131 23.3149ZM122.73 22.2701C123.249 22.5679 123.753 22.6799 124.241 22.6061C124.729 22.5322 125.177 22.3246 125.587 21.9833C125.997 21.642 126.347 21.2183 126.637 20.7124C126.928 20.2064 127.118 19.6887 127.207 19.1594C127.297 18.63 127.252 18.1345 127.071 17.6728C126.891 17.2112 126.541 16.8314 126.022 16.5336C125.502 16.2357 124.998 16.1254 124.508 16.2025C124.019 16.2797 123.568 16.4905 123.156 16.8352C122.745 17.1798 122.394 17.6051 122.103 18.111C121.813 18.617 121.624 19.133 121.536 19.6591C121.448 20.1851 121.496 20.6774 121.678 21.1358C121.86 21.5942 122.211 21.9723 122.73 22.2701Z" fill="black"/>
<path d="M129.909 27.6503L135.668 21.0924L136.641 21.9471L135.741 22.9718L135.827 23.0468C136.271 22.8166 136.73 22.7385 137.204 22.8124C137.681 22.8834 138.133 23.1064 138.56 23.4813C138.993 23.8611 139.267 24.2755 139.382 24.7243C139.502 25.1728 139.49 25.6433 139.345 26.1359L139.413 26.1959C139.878 26.0046 140.366 25.9568 140.877 26.0525C141.391 26.1453 141.882 26.3979 142.352 26.8103C142.938 27.3251 143.256 27.9299 143.307 28.6244C143.36 29.3162 143.048 30.0477 142.37 30.8191L138.517 35.2081L137.509 34.3234L141.363 29.9343C141.788 29.4505 141.959 28.9884 141.877 28.5482C141.794 28.108 141.574 27.7304 141.215 27.4155C140.754 27.0106 140.275 26.8364 139.776 26.8929C139.281 26.9466 138.847 27.1855 138.474 27.6096L134.725 31.8791L133.701 30.9794L137.644 26.4878C137.972 26.115 138.114 25.7085 138.072 25.2683C138.033 24.8253 137.823 24.4364 137.441 24.1015C137.179 23.8715 136.873 23.7263 136.523 23.6659C136.176 23.6079 135.824 23.6415 135.467 23.7667C135.115 23.8915 134.798 24.1147 134.516 24.4364L130.917 28.5351L129.909 27.6503Z" fill="black"/>
<path d="M139.618 41.1091L149.173 33.8496L149.957 34.8811L148.853 35.7198L148.949 35.8464C149.13 35.8332 149.366 35.8249 149.658 35.8216C149.956 35.819 150.278 35.8927 150.626 36.0429C150.978 36.1937 151.326 36.4953 151.67 36.9477C152.114 37.5329 152.36 38.1598 152.407 38.8284C152.453 39.4971 152.303 40.1605 151.956 40.8188C151.61 41.477 151.071 42.0834 150.342 42.6379C149.606 43.1971 148.873 43.5565 148.143 43.7164C147.415 43.8739 146.736 43.8433 146.103 43.6245C145.474 43.4034 144.939 43.0033 144.499 42.4242C144.16 41.9778 143.962 41.5643 143.906 41.1836C143.853 40.8006 143.867 40.4645 143.947 40.1753C144.03 39.8839 144.105 39.6509 144.172 39.4762L144.103 39.3857L140.429 42.1768L139.618 41.1091ZM146.496 37.539C145.971 37.9377 145.567 38.3664 145.283 38.825C145.001 39.2813 144.86 39.7431 144.858 40.2106C144.86 40.6757 145.023 41.1225 145.348 41.5508C145.687 41.9971 146.088 42.2803 146.55 42.4001C147.018 42.5207 147.509 42.504 148.025 42.35C148.546 42.1968 149.054 41.9323 149.548 41.5565C150.037 41.1852 150.42 40.7753 150.698 40.3266C150.98 39.8786 151.122 39.4167 151.122 38.941C151.127 38.4659 150.958 38.0022 150.615 37.5498C150.285 37.1154 149.897 36.8341 149.452 36.7058C149.011 36.5752 148.536 36.5835 148.03 36.7306C147.526 36.8754 147.015 37.1449 146.496 37.539Z" fill="black"/>
<path d="M149.462 49.2637L157.037 44.9292L157.702 46.093L150.128 50.4276L149.462 49.2637ZM158.638 44.7985C158.508 44.5717 158.473 44.3318 158.534 44.079C158.596 43.8295 158.736 43.6427 158.953 43.5185C159.17 43.3943 159.401 43.3686 159.648 43.4413C159.897 43.5172 160.086 43.6686 160.216 43.8955C160.345 44.1223 160.379 44.3605 160.317 44.61C160.256 44.8628 160.118 45.0513 159.901 45.1755C159.684 45.2996 159.451 45.3237 159.202 45.2478C158.956 45.1751 158.767 45.0254 158.638 44.7985Z" fill="black"/>
<path d="M163.709 51.3014L153.135 56.1605L152.575 54.9421L163.149 50.083L163.709 51.3014Z" fill="black"/>
<path d="M155.162 60.8497L163.384 57.924L163.834 59.1873L155.612 62.113L155.162 60.8497ZM164.983 58.0787C164.896 57.8325 164.904 57.5903 165.008 57.3522C165.114 57.1176 165.284 56.9584 165.52 56.8746C165.755 56.7908 165.988 56.8065 166.218 56.9217C166.449 57.0404 166.609 57.2229 166.696 57.4692C166.784 57.7154 166.775 57.9558 166.67 58.1903C166.565 58.4285 166.395 58.5894 166.16 58.6732C165.924 58.757 165.691 58.7396 165.46 58.6208C165.23 58.5056 165.071 58.3249 164.983 58.0787Z" fill="black"/>
<path d="M162.788 67.2615L157.656 68.3694L157.373 67.0587L165.904 65.2171L166.177 66.4833L164.844 66.7711L164.868 66.8822C165.345 66.9886 165.758 67.2171 166.109 67.5676C166.464 67.9173 166.71 68.4143 166.849 69.0586C166.974 69.6362 166.965 70.1672 166.821 70.6515C166.682 71.1351 166.399 71.5488 165.973 71.8925C165.551 72.2355 164.977 72.4853 164.252 72.642L158.831 73.8122L158.548 72.5015L163.88 71.3505C164.55 71.2058 165.034 70.9191 165.333 70.4903C165.636 70.0607 165.722 69.5423 165.59 68.9351C165.5 68.5167 165.329 68.1623 165.076 67.872C164.824 67.5853 164.504 67.3851 164.115 67.2714C163.726 67.1577 163.284 67.1544 162.788 67.2615Z" fill="black"/>
<path d="M156.428 82.6901C156.4 82.043 156.459 81.483 156.605 81.0103C156.748 80.5378 156.947 80.1405 157.202 79.8184C157.453 79.5003 157.727 79.2439 158.021 79.049L158.817 80.0835C158.664 80.2115 158.489 80.3727 158.292 80.5671C158.092 80.7616 157.924 81.023 157.786 81.3512C157.645 81.6835 157.586 82.1126 157.609 82.6386C157.64 83.3425 157.836 83.9159 158.196 84.359C158.557 84.802 159.1 85.0077 159.827 84.976L161.598 84.8988L161.593 84.7852C161.43 84.6938 161.227 84.5623 160.984 84.3909C160.746 84.2231 160.528 83.9748 160.332 83.6459C160.139 83.3206 160.031 82.8742 160.006 82.3066C159.975 81.6027 160.114 80.9634 160.423 80.3888C160.732 79.818 161.197 79.356 161.818 79.0029C162.44 78.6535 163.205 78.459 164.113 78.4194C165.006 78.3804 165.791 78.5035 166.467 78.7887C167.147 79.0738 167.68 79.4884 168.068 80.0327C168.46 80.5767 168.671 81.2158 168.703 81.95C168.728 82.5176 168.653 82.9721 168.478 83.3134C168.308 83.6582 168.107 83.9248 167.876 84.1131C167.65 84.305 167.463 84.4534 167.316 84.5584L167.322 84.6946L168.707 84.6342L168.763 85.9284L159.794 86.3196C159.045 86.3523 158.428 86.2086 157.944 85.8884C157.457 85.5723 157.09 85.1332 156.846 84.5714C156.598 84.0135 156.459 83.3864 156.428 82.6901ZM161.217 82.4357C161.241 82.9731 161.384 83.4218 161.646 83.782C161.908 84.1421 162.274 84.4086 162.744 84.5815C163.214 84.7543 163.771 84.8267 164.414 84.7987C165.043 84.7713 165.593 84.6525 166.065 84.4423C166.537 84.2321 166.902 83.9357 167.158 83.5529C167.414 83.1702 167.531 82.7063 167.507 82.1614C167.482 81.5938 167.318 81.127 167.014 80.7611C166.71 80.399 166.311 80.1339 165.819 79.9658C165.326 79.8015 164.785 79.7323 164.194 79.758C163.589 79.7844 163.058 79.9024 162.6 80.1119C162.147 80.325 161.796 80.6247 161.548 81.0109C161.303 81.4007 161.193 81.8756 161.217 82.4357Z" fill="black"/>
<path d="M170.339 102.231L166.425 101.404L166.684 100.181L170.597 101.009L170.339 102.231ZM169.737 105.078L165.823 104.25L166.082 103.027L169.995 103.855L169.737 105.078Z" fill="black"/>
<path d="M154.264 115.973L154.936 114.657L163.357 123.754L162.696 125.049L150.389 123.564L151.061 122.248L161.366 123.605L161.407 123.524L154.264 115.973ZM158.065 118.526L155.357 123.829L154.244 123.26L156.951 117.957L158.065 118.526Z" fill="black"/>
<path d="M151.361 131.786L147.183 128.607L147.995 127.54L154.941 132.823L154.157 133.854L153.071 133.029L153.002 133.119C153.231 133.55 153.327 134.013 153.289 134.508C153.253 135.004 153.036 135.515 152.637 136.04C152.28 136.51 151.87 136.848 151.409 137.054C150.951 137.262 150.453 137.317 149.915 137.217C149.38 137.119 148.817 136.846 148.226 136.396L143.812 133.039L144.624 131.972L148.965 135.274C149.511 135.689 150.044 135.871 150.564 135.819C151.087 135.769 151.536 135.497 151.912 135.003C152.172 134.662 152.329 134.302 152.386 133.921C152.44 133.543 152.384 133.17 152.217 132.8C152.051 132.431 151.765 132.093 151.361 131.786Z" fill="black"/>
<path d="M137.889 139.247C138.42 138.75 139.015 138.446 139.673 138.334C140.333 138.225 141.008 138.309 141.698 138.587C142.391 138.867 143.053 139.345 143.684 140.02C144.31 140.689 144.739 141.378 144.97 142.085C145.201 142.792 145.237 143.471 145.079 144.122C144.92 144.774 144.573 145.35 144.036 145.852C143.621 146.24 143.228 146.478 142.858 146.565C142.488 146.657 142.158 146.675 141.868 146.62C141.577 146.57 141.344 146.523 141.169 146.48L141.086 146.558L144.02 149.695L143.041 150.611L135.092 142.112L136.038 141.227L136.954 142.207L137.07 142.098C137.034 141.914 136.999 141.672 136.966 141.371C136.936 141.072 136.979 140.739 137.096 140.37C137.215 140.004 137.48 139.63 137.889 139.247ZM138.579 140.251C138.186 140.618 137.95 141.031 137.871 141.489C137.793 141.951 137.855 142.43 138.056 142.927C138.259 143.427 138.585 143.917 139.035 144.399C139.481 144.874 139.939 145.226 140.411 145.454C140.886 145.684 141.352 145.772 141.809 145.718C142.269 145.666 142.698 145.454 143.097 145.081C143.512 144.693 143.758 144.263 143.835 143.791C143.913 143.325 143.851 142.846 143.65 142.354C143.45 141.868 143.14 141.4 142.72 140.952C142.296 140.499 141.841 140.151 141.356 139.91C140.871 139.674 140.389 139.575 139.911 139.612C139.433 139.655 138.989 139.868 138.579 140.251Z" fill="black"/>
<path d="M120.33 161.073L121.586 160.434C121.844 160.758 122.136 161.009 122.46 161.188C122.782 161.369 123.121 161.486 123.479 161.538C123.835 161.595 124.196 161.59 124.561 161.523C124.927 161.456 125.282 161.336 125.626 161.161C126.254 160.841 126.743 160.394 127.092 159.817C127.437 159.242 127.603 158.57 127.589 157.799C127.573 157.03 127.336 156.196 126.88 155.298C126.423 154.4 125.889 153.717 125.278 153.25C124.664 152.785 124.023 152.522 123.355 152.462C122.684 152.404 122.034 152.534 121.406 152.853C121.061 153.028 120.754 153.243 120.485 153.499C120.216 153.755 119.998 154.042 119.832 154.36C119.665 154.683 119.56 155.027 119.516 155.393C119.471 155.765 119.502 156.148 119.61 156.544L118.354 157.182C118.179 156.604 118.11 156.042 118.147 155.496C118.184 154.951 118.314 154.436 118.536 153.954C118.76 153.475 119.065 153.042 119.45 152.655C119.833 152.269 120.285 151.944 120.809 151.678C121.693 151.228 122.59 151.045 123.499 151.127C124.407 151.209 125.261 151.548 126.061 152.145C126.861 152.741 127.539 153.586 128.095 154.68C128.651 155.774 128.934 156.82 128.944 157.818C128.954 158.816 128.724 159.706 128.255 160.488C127.785 161.27 127.108 161.886 126.223 162.336C125.7 162.602 125.17 162.775 124.633 162.857C124.094 162.94 123.563 162.929 123.043 162.824C122.524 162.722 122.033 162.525 121.57 162.233C121.109 161.945 120.696 161.558 120.33 161.073Z" fill="black"/>
<path d="M108.703 156.672C109.46 156.451 110.176 156.436 110.852 156.629C111.524 156.822 112.115 157.196 112.625 157.749C113.131 158.304 113.511 159.013 113.764 159.878C114.02 160.751 114.085 161.559 113.959 162.302C113.83 163.046 113.535 163.682 113.073 164.208C112.608 164.735 111.997 165.109 111.241 165.331C110.485 165.552 109.771 165.566 109.098 165.373C108.422 165.18 107.831 164.805 107.324 164.247C106.813 163.69 106.43 162.975 106.174 162.103C105.921 161.238 105.859 160.435 105.989 159.694C106.116 158.954 106.412 158.321 106.877 157.794C107.339 157.268 107.947 156.894 108.703 156.672ZM109.042 157.828C108.468 157.997 108.039 158.282 107.754 158.685C107.47 159.089 107.309 159.556 107.271 160.088C107.234 160.62 107.297 161.166 107.461 161.726C107.625 162.286 107.867 162.781 108.187 163.212C108.507 163.644 108.896 163.954 109.354 164.143C109.812 164.333 110.328 164.343 110.902 164.175C111.477 164.007 111.906 163.719 112.189 163.312C112.472 162.906 112.632 162.434 112.669 161.899C112.705 161.363 112.641 160.815 112.477 160.256C112.313 159.696 112.072 159.202 111.753 158.774C111.434 158.347 111.046 158.04 110.589 157.854C110.132 157.669 109.617 157.66 109.042 157.828Z" fill="black"/>
<path d="M100.2 159.279L100.936 167.975L99.645 168.084L99.53 166.726L99.4168 166.735C99.2749 167.215 99.0129 167.6 98.6307 167.891C98.2489 168.185 97.7749 168.357 97.2087 168.404C96.635 168.453 96.1466 168.363 95.7433 168.135C95.3366 167.911 95.006 167.576 94.7516 167.13L94.661 167.138C94.4763 167.605 94.1725 167.99 93.7495 168.292C93.3268 168.598 92.804 168.777 92.1813 168.83C91.4037 168.896 90.7471 168.706 90.2115 168.261C89.6762 167.82 89.3652 167.088 89.2787 166.065L88.7862 160.245L90.1224 160.132L90.6148 165.952C90.6691 166.593 90.8834 167.037 91.2578 167.283C91.6321 167.529 92.057 167.632 92.5326 167.591C93.1441 167.54 93.6021 167.315 93.9067 166.916C94.2117 166.522 94.3404 166.043 94.2928 165.481L93.8137 159.819L95.1725 159.704L95.6765 165.66C95.7183 166.155 95.9124 166.539 96.2588 166.814C96.6055 167.093 97.0317 167.211 97.5375 167.168C97.8847 167.138 98.2015 167.018 98.4878 166.808C98.7703 166.598 98.9902 166.321 99.1473 165.977C99.301 165.637 99.3598 165.254 99.3237 164.827L98.8638 159.392L100.2 159.279Z" fill="black"/>
<path d="M83.6235 156.946L82.2235 168.864L80.9369 168.713L81.0986 167.336L80.9406 167.317C80.8251 167.456 80.6671 167.632 80.4667 167.845C80.262 168.061 79.9852 168.243 79.6363 168.388C79.2831 168.538 78.8244 168.579 78.2601 168.513C77.5303 168.427 76.9084 168.169 76.3945 167.739C75.8806 167.308 75.5068 166.74 75.2732 166.034C75.0397 165.327 74.9763 164.519 75.0833 163.609C75.1911 162.691 75.4407 161.913 75.8321 161.277C76.223 160.644 76.7166 160.175 77.3129 159.872C77.9088 159.572 78.5679 159.464 79.2902 159.549C79.847 159.614 80.2819 159.759 80.5951 159.983C80.9078 160.21 81.1406 160.453 81.2933 160.711C81.4456 160.973 81.5614 161.189 81.6406 161.358L81.7535 161.372L82.2917 156.789L83.6235 156.946ZM81.4234 164.376C81.5003 163.722 81.4722 163.133 81.3391 162.61C81.2056 162.091 80.971 161.669 80.6355 161.343C80.2995 161.022 79.8644 160.829 79.3302 160.767C78.7735 160.701 78.2916 160.793 77.8847 161.043C77.4736 161.296 77.1446 161.662 76.8977 162.14C76.6466 162.621 76.4849 163.171 76.4124 163.788C76.3408 164.397 76.3703 164.957 76.501 165.469C76.6274 165.983 76.8619 166.405 77.2046 166.735C77.543 167.069 77.9943 167.269 78.5586 167.335C79.1004 167.399 79.5717 167.315 79.9726 167.084C80.3731 166.856 80.6961 166.509 80.9417 166.042C81.1868 165.579 81.3474 165.023 81.4234 164.376Z" fill="black"/>
<path d="M70.9434 158.382L68.8075 166.844L67.5074 166.516L69.6433 158.054L70.9434 158.382ZM67.7905 168.087C68.0439 168.151 68.2406 168.293 68.3807 168.512C68.5171 168.73 68.5547 168.96 68.4935 169.202C68.4323 169.445 68.2899 169.629 68.0664 169.757C67.8392 169.883 67.5989 169.914 67.3455 169.85C67.0921 169.786 66.8972 169.645 66.7608 169.427C66.6207 169.208 66.5813 168.977 66.6425 168.735C66.7036 168.493 66.8478 168.308 67.075 168.182C67.2986 168.055 67.537 168.023 67.7905 168.087Z" fill="black"/>
<path d="M59.5867 167.223L63.4302 156.24L64.6958 156.683L60.8523 167.666L59.5867 167.223Z" fill="black"/>
<path d="M58.6513 154.444L55.0489 162.393L53.8276 161.84L57.4299 153.891L58.6513 154.444ZM53.8275 163.437C54.0656 163.545 54.2341 163.719 54.3332 163.959C54.4287 164.198 54.4249 164.431 54.3217 164.659C54.2185 164.886 54.0457 165.043 53.8031 165.129C53.5571 165.213 53.3151 165.201 53.077 165.093C52.839 164.985 52.6722 164.812 52.5766 164.573C52.4776 164.332 52.4797 164.098 52.5829 163.871C52.686 163.643 52.8606 163.487 53.1066 163.403C53.3492 163.318 53.5895 163.329 53.8275 163.437Z" fill="black"/>
<path d="M48.7667 155.496L51.5279 151.03L52.6683 151.736L48.0784 159.158L46.9766 158.477L47.6937 157.317L47.5971 157.258C47.19 157.527 46.7386 157.666 46.2428 157.676C45.7449 157.689 45.2157 157.522 44.6552 157.175C44.1526 156.864 43.7766 156.489 43.5271 156.05C43.2757 155.614 43.1738 155.124 43.2214 154.578C43.2669 154.037 43.485 153.45 43.8754 152.818L46.792 148.102L47.9325 148.807L45.0637 153.446C44.7031 154.03 44.5737 154.577 44.6753 155.09C44.7749 155.606 45.0889 156.027 45.6173 156.354C45.9813 156.579 46.3555 156.701 46.7399 156.721C47.121 156.738 47.4874 156.646 47.8389 156.445C48.1905 156.244 48.4998 155.927 48.7667 155.496Z" fill="black"/>
<path d="M42.0373 140.197C42.523 140.626 42.8854 141.057 43.1245 141.49C43.3662 141.92 43.5145 142.339 43.5695 142.746C43.6241 143.148 43.6194 143.523 43.5552 143.87L42.258 143.726C42.2724 143.526 42.2776 143.288 42.2738 143.012C42.2724 142.733 42.2012 142.43 42.06 142.104C41.9184 141.772 41.6503 141.432 41.2554 141.083C40.7271 140.617 40.1784 140.36 39.6091 140.313C39.0399 140.265 38.5147 140.514 38.0335 141.059L36.8607 142.389L36.946 142.464C37.1251 142.41 37.3605 142.355 37.6522 142.299C37.9385 142.244 38.2683 142.259 38.6414 142.346C39.0091 142.433 39.406 142.664 39.8321 143.04C40.3604 143.506 40.7245 144.05 40.9243 144.671C41.1213 145.289 41.1315 145.945 40.9547 146.637C40.7752 147.327 40.3847 148.013 39.7832 148.695C39.1918 149.365 38.5589 149.845 37.8846 150.134C37.2078 150.426 36.5389 150.523 35.878 150.425C35.2145 150.329 34.6073 150.039 34.0562 149.552C33.6302 149.177 33.3548 148.807 33.2301 148.445C33.1001 148.083 33.0473 147.753 33.0717 147.456C33.0907 147.16 33.1135 146.922 33.1398 146.744L33.0376 146.653L32.1204 147.693L31.149 146.836L37.0882 140.104C37.5844 139.542 38.1157 139.197 38.682 139.071C39.2481 138.939 39.8182 138.979 40.3925 139.193C40.9664 139.401 41.5147 139.736 42.0373 140.197ZM38.8988 143.823C38.4955 143.467 38.0732 143.259 37.6319 143.198C37.1907 143.137 36.7447 143.216 36.2942 143.435C35.8436 143.653 35.4053 144.004 34.9792 144.487C34.5632 144.959 34.2671 145.437 34.0909 145.923C33.9146 146.409 33.8755 146.877 33.9734 147.328C34.0713 147.778 34.3248 148.183 34.7338 148.544C35.1599 148.92 35.6102 149.125 36.0847 149.16C36.5563 149.192 37.0236 149.089 37.4863 148.851C37.9463 148.61 38.3717 148.268 38.7627 147.825C39.1636 147.371 39.4472 146.906 39.6134 146.431C39.7743 145.957 39.8019 145.496 39.6961 145.049C39.5849 144.603 39.3192 144.194 38.8988 143.823Z" fill="black"/>
<path d="M18.3616 136.709L21.6714 134.463L22.3733 135.498L19.0636 137.744L18.3616 136.709ZM16.7281 134.302L20.0378 132.056L20.7398 133.091L17.43 135.337L16.7281 134.302Z" fill="black"/>
<path d="M19.8011 116.101L8.82857 119.975L7.51955 116.267C7.21688 115.41 7.11489 114.655 7.21356 114.001C7.30867 113.349 7.56316 112.801 7.97703 112.358C8.3909 111.915 8.92108 111.579 9.56758 111.351C10.2141 111.122 10.834 111.052 11.4274 111.14C12.0207 111.228 12.5568 111.494 13.0355 111.94C13.5106 112.387 13.8982 113.035 14.1984 113.885L15.2577 116.886L14.0576 117.309L13.0134 114.352C12.8066 113.766 12.5544 113.325 12.2568 113.028C11.958 112.728 11.6231 112.553 11.252 112.503C10.8761 112.451 10.4685 112.503 10.0291 112.658C9.58981 112.813 9.23485 113.031 8.96426 113.311C8.69366 113.591 8.53276 113.943 8.48154 114.367C8.42675 114.792 8.50403 115.301 8.71337 115.894L9.53813 118.23L19.332 114.772L19.8011 116.101ZM13.0485 112.676L17.0241 108.236L17.5689 109.779L13.5781 114.177L13.0485 112.676Z" fill="black"/>
<path d="M11.354 99.0114L6.26503 99.8591L6.04469 98.5364L14.6533 97.1023L14.8737 98.425L13.4165 98.6678L13.4314 98.7574C13.9022 98.8864 14.3262 99.1383 14.7036 99.5132C15.0772 99.8888 15.3181 100.402 15.4264 101.052C15.5161 101.59 15.4781 102.088 15.3124 102.545C15.143 103.004 14.839 103.392 14.4006 103.711C13.9585 104.03 13.3712 104.251 12.6389 104.373L7.1688 105.284L6.94846 103.962L12.3289 103.065C12.9566 102.961 13.428 102.702 13.7431 102.288C14.0576 101.871 14.1691 101.388 14.0776 100.839C14.0229 100.51 13.8831 100.189 13.6583 99.8774C13.4329 99.5617 13.1272 99.3169 12.7411 99.1432C12.3544 98.9657 11.892 98.9217 11.354 99.0114Z" fill="black"/>
<path d="M8.75406 90.3653L14.0041 90.3736L14.0019 91.7145L5.27466 91.7007L5.27672 90.4052L6.64035 90.4074L6.64053 90.2938C6.19767 90.0885 5.84211 89.7774 5.57383 89.3603C5.30176 88.9432 5.16625 88.4051 5.16729 87.746C5.16823 87.1551 5.29026 86.6382 5.53338 86.1954C5.77272 85.7526 6.1369 85.4085 6.62593 85.1631C7.11117 84.9176 7.725 84.7955 8.46742 84.7967L14.0129 84.8054L14.0107 86.1463L8.55621 86.1377C7.8706 86.1366 7.33623 86.3138 6.95309 86.6693C6.56616 87.0247 6.37221 87.513 6.37122 88.1342C6.37055 88.5623 6.46274 88.945 6.64781 89.2824C6.83289 89.616 7.10331 89.8797 7.45906 90.0735C7.81482 90.2672 8.24648 90.3645 8.75406 90.3653Z" fill="black"/>
<path d="M6.23667 74.5512L7.36212 74.7083L6.73686 79.1876L5.61141 79.0305L6.23667 74.5512ZM3.72281 77.4359L3.90819 76.1079L12.1465 77.2578C12.5217 77.3102 12.8106 77.2951 13.0134 77.2125C13.2129 77.1256 13.3566 77.0003 13.4445 76.8366C13.5291 76.6687 13.585 76.4872 13.6123 76.2921C13.6327 76.1458 13.6419 76.0247 13.64 75.9288C13.6344 75.8324 13.6298 75.7553 13.6264 75.6975L14.8571 75.5939C14.8783 75.6886 14.8945 75.819 14.9058 75.985C14.9208 76.1516 14.911 76.3587 14.8764 76.6063C14.8241 76.9814 14.6921 77.3378 14.4805 77.6754C14.2694 78.0093 13.9823 78.2714 13.6192 78.4616C13.2566 78.6481 12.824 78.7063 12.3213 78.6361L3.72281 77.4359Z" fill="black"/>
<path d="M15.5962 71.8006L7.11256 69.7527L7.42721 68.4492L15.9108 70.4971L15.5962 71.8006ZM5.85861 68.7486C5.79729 69.0027 5.65787 69.2009 5.44037 69.3432C5.22376 69.4818 4.99394 69.5218 4.75092 69.4632C4.5079 69.4045 4.32164 69.2641 4.19213 69.0419C4.06351 68.816 4.02987 68.576 4.0912 68.322C4.15253 68.0679 4.2915 67.8715 4.50811 67.7329C4.72561 67.5905 4.95587 67.5487 5.19889 67.6074C5.44191 67.666 5.62773 67.8083 5.75635 68.0342C5.88586 68.2564 5.91994 68.4945 5.85861 68.7486Z" fill="black"/>
<path d="M16.9774 65.3042L8.93168 61.923L9.43358 60.7287L10.6907 61.257L10.7347 61.1523C10.3757 60.8042 10.1559 60.3934 10.0755 59.9199C9.99155 59.445 10.0596 58.9457 10.2798 58.4219C10.5028 57.8911 10.809 57.5 11.1981 57.2485C11.5853 56.9921 12.0354 56.8547 12.5486 56.8361L12.5838 56.7523C12.2549 56.3716 12.0547 55.9239 11.9835 55.4091C11.9087 54.8929 11.9924 54.3466 12.2345 53.7705C12.5368 53.0511 13.0094 52.5573 13.6521 52.2892C14.2913 52.0196 15.0841 52.0836 16.0304 52.4813L21.4152 54.7443L20.8957 55.9805L15.5109 53.7175C14.9173 53.468 14.4248 53.4521 14.0334 53.6697C13.642 53.8874 13.3538 54.2162 13.1689 54.6562C12.9312 55.2219 12.9181 55.7321 13.1297 56.1867C13.3378 56.6398 13.702 56.9757 14.2224 57.1944L19.4604 59.3957L18.9321 60.6528L13.4217 58.337C12.9642 58.1448 12.5334 58.1384 12.1293 58.3178C11.7217 58.4958 11.4196 58.8187 11.223 59.2866C11.0879 59.6079 11.0473 59.9442 11.101 60.2954C11.1562 60.6432 11.2997 60.9665 11.5316 61.2653C11.7615 61.5591 12.0737 61.7889 12.4683 61.9548L17.4969 64.068L16.9774 65.3042Z" fill="black"/>
<path d="M26.1861 47.0661C25.7136 47.7617 25.1524 48.2573 24.5026 48.5532C23.8518 48.8437 23.1566 48.9369 22.4168 48.8327C21.676 48.7233 20.9359 48.4174 20.1965 47.915C19.4571 47.4126 18.8969 46.8351 18.516 46.1825C18.1341 45.5246 17.9499 44.8454 17.9634 44.1447C17.9759 43.4388 18.2035 42.76 18.6463 42.1083C18.9018 41.7323 19.2167 41.4036 19.5911 41.1222C19.9654 40.8408 20.3958 40.6455 20.8821 40.5363C21.3653 40.4249 21.8979 40.4364 22.4798 40.5708C23.0617 40.7051 23.6895 41.0011 24.3631 41.4588L24.8331 41.7781L21.0525 47.3426L20.0938 46.6912L23.108 42.2546C22.7007 41.9779 22.2819 41.8124 21.8516 41.7582C21.4235 41.7009 21.0159 41.7582 20.6288 41.9303C20.2438 42.0992 19.9151 42.3842 19.6427 42.7853C19.3425 43.227 19.1925 43.6838 19.1925 44.1555C19.1916 44.622 19.3065 45.0595 19.5372 45.4681C19.7679 45.8767 20.0822 46.2162 20.4801 46.4865L21.1193 46.9208C21.6644 47.2912 22.1904 47.5112 22.6973 47.5808C23.2031 47.6451 23.6697 47.5751 24.0969 47.3708C24.5211 47.1644 24.8854 46.8372 25.1898 46.3892C25.3877 46.0978 25.5258 45.8069 25.604 45.5166C25.6812 45.221 25.6953 44.9306 25.6463 44.6455C25.5942 44.3582 25.4748 44.0824 25.288 43.8181L26.3168 42.951C26.6036 43.3107 26.7944 43.7174 26.8892 44.171C26.9808 44.6225 26.9703 45.0962 26.8578 45.5922C26.7421 46.086 26.5182 46.5773 26.1861 47.0661Z" fill="black"/>
<path d="M35.9265 34.7795L28.3358 25.9598L33.6586 21.3787L34.474 22.3262L30.2192 25.9881L32.7841 28.9681L36.7632 25.5435L37.5786 26.4909L33.5995 29.9156L36.1791 32.9129L40.5028 29.1917L41.3182 30.1391L35.9265 34.7795Z" fill="black"/>
<path d="M45.3341 27.1073L40.6593 19.7376L41.7533 19.0437L42.4594 20.1568L42.5361 20.1081C42.4392 19.6583 42.4946 19.2082 42.7024 18.7579C42.9102 18.3076 43.2348 17.9425 43.6762 17.6625C43.7594 17.6097 43.8643 17.5454 43.9911 17.4694C44.1179 17.3935 44.2153 17.3384 44.2833 17.3043L45.0137 18.4558C44.9693 18.4705 44.8722 18.5119 44.7225 18.58C44.5739 18.6428 44.4245 18.7219 44.2741 18.8173C43.9159 19.0445 43.6437 19.3226 43.4576 19.6515C43.2726 19.9751 43.1818 20.3198 43.185 20.6856C43.1894 21.0461 43.2972 21.3927 43.5082 21.7254L46.4664 26.389L45.3341 27.1073Z" fill="black"/>
<path d="M52.9575 22.4791L49.19 14.607L50.3585 14.0477L50.9276 15.2368L51.0096 15.1975C50.9667 14.7393 51.0751 14.299 51.3348 13.8765C51.5946 13.4541 51.9602 13.13 52.4317 12.9044C52.5205 12.8618 52.6324 12.8104 52.7673 12.75C52.9022 12.6897 53.0054 12.6466 53.077 12.6207L53.6657 13.8507C53.6198 13.8601 53.5185 13.8897 53.3618 13.9395C53.2068 13.9843 53.049 14.0451 52.8884 14.1219C52.5058 14.3051 52.2025 14.5489 51.9787 14.8534C51.7567 15.1528 51.6256 15.4843 51.5854 15.8479C51.547 16.2064 51.6129 16.5633 51.7829 16.9187L54.1671 21.9003L52.9575 22.4791Z" fill="black"/>
<path d="M64.0491 17.9952C63.2972 18.2307 62.5815 18.2584 61.9019 18.0783C61.2259 17.897 60.6281 17.5345 60.1085 16.9907C59.5925 16.4458 59.1998 15.7431 58.9303 14.8828C58.6586 14.0153 58.5787 13.2088 58.6905 12.4632C58.8059 11.7166 59.0896 11.076 59.5414 10.5415C59.9968 10.0059 60.6005 9.62038 61.3524 9.3849C62.1042 9.14942 62.8181 9.12231 63.4941 9.30356C64.1737 9.48368 64.7721 9.84801 65.2892 10.3966C65.81 10.944 66.2062 11.6514 66.4779 12.519C66.7473 13.3793 66.8238 14.181 66.7072 14.924C66.5942 15.6659 66.31 16.3047 65.8546 16.8403C65.4028 17.3748 64.8009 17.7597 64.0491 17.9952ZM63.689 16.8457C64.2602 16.6669 64.6842 16.3733 64.9612 15.965C65.2382 15.5567 65.3906 15.0863 65.4183 14.5537C65.4459 14.0211 65.3726 13.4764 65.1983 12.9197C65.0239 12.3631 64.7729 11.8721 64.4452 11.4468C64.1175 11.0215 63.7229 10.7184 63.2614 10.5375C62.7998 10.3565 62.2835 10.3555 61.7124 10.5344C61.1412 10.7133 60.7177 11.0086 60.4419 11.4205C60.166 11.8324 60.0148 12.3065 59.9882 12.8427C59.9617 13.3789 60.0356 13.9254 60.2099 14.4821C60.3843 15.0387 60.6347 15.5279 60.9613 15.9496C61.2879 16.3712 61.6813 16.6707 62.1417 16.8481C62.6021 17.0254 63.1179 17.0246 63.689 16.8457Z" fill="black"/>
<path d="M72.4447 15.5211L71.0665 6.90331L72.3457 6.69874L72.5538 8.00038L72.6436 7.98602C72.7325 7.5345 72.9615 7.14306 73.3304 6.81169C73.6994 6.48033 74.142 6.27337 74.6581 6.19083C74.7554 6.17527 74.8772 6.1577 75.0237 6.13812C75.1702 6.11853 75.2814 6.10649 75.3574 6.10201L75.5728 7.44854C75.5261 7.44449 75.4205 7.44411 75.2561 7.44739C75.0948 7.44633 74.9263 7.45986 74.7505 7.48797C74.3316 7.55497 73.9716 7.70268 73.6706 7.93112C73.3727 8.15521 73.1529 8.43587 73.0112 8.77308C72.8726 9.10596 72.8344 9.4669 72.8966 9.85589L73.7687 15.3093L72.4447 15.5211Z" fill="black"/>
</svg>
