<svg width="1441" height="823" viewBox="0 0 1441 823" fill="none" xmlns="http://www.w3.org/2000/svg">
<g clip-path="url(#clip0_245_15883)">
<path d="M-1136.57 693.647C-1105.71 653.546 -979.053 922.112 -948.181 881.989C-917.31 841.866 -1043.99 573.32 -1013.12 533.197C-982.244 493.074 -855.6 761.662 -824.728 721.539C-793.856 681.415 -920.534 412.87 -889.662 372.746C-858.791 332.623 -732.146 601.211 -701.275 561.088C-670.403 520.965 -797.081 252.419 -766.209 212.296C-735.337 172.173 -608.693 440.761 -577.821 400.637C-546.95 360.514 -673.627 91.9688 -642.772 51.8669C-611.917 11.765 -485.24 280.31 -454.318 240.123C-423.397 199.935 -550.124 -68.5462 -519.269 -108.648C-488.414 -148.75 -361.72 119.774 -330.931 79.758C-300.142 39.7421 -426.737 -228.911 -395.783 -269.142C-364.829 -309.372 -238.267 -40.6766 -207.412 -80.7785C-176.557 -120.88 -303.201 -389.469 -272.346 -429.571C-241.491 -469.672 -114.83 -201.106 -83.9584 -241.229C-53.0868 -281.352 -179.764 -549.898 -148.909 -590C-118.054 -630.101 8.62338 -361.556 39.495 -401.68C70.3666 -441.803 -56.3111 -710.348 -25.4395 -750.471C5.43214 -790.595 132.077 -522.007 162.948 -562.13C193.82 -602.253 67.1423 -870.799 98.0139 -910.922C128.886 -951.045 255.53 -682.457 286.402 -722.58C317.273 -762.704 190.596 -1031.25 221.467 -1071.37C252.339 -1111.5 378.983 -842.908 409.855 -883.031C440.727 -923.154 314.066 -1191.72 344.921 -1231.82C375.776 -1271.92 502.453 -1003.38 533.308 -1043.48C564.163 -1083.58 437.519 -1352.17 468.374 -1392.27C499.229 -1432.38 625.907 -1163.83 656.778 -1203.95C687.65 -1244.08 560.972 -1512.62 591.844 -1552.75C622.715 -1592.87 749.376 -1324.3 780.231 -1364.4C811.086 -1404.51 684.442 -1673.09 715.314 -1713.22C746.185 -1753.34 872.846 -1484.77 903.718 -1524.9C934.59 -1565.02 807.928 -1833.59 838.783 -1873.69" stroke="#DFF49E" stroke-opacity="0.23" stroke-width="3" stroke-miterlimit="10"/>
<path d="M-876.597 1244.88C-845.742 1204.78 -719.081 1473.35 -688.21 1433.22C-657.338 1393.1 -784.016 1124.56 -753.144 1084.43C-722.273 1044.31 -595.628 1312.9 -564.756 1272.77C-533.885 1232.65 -660.562 964.105 -629.691 923.982C-598.819 883.858 -472.175 1152.45 -441.303 1112.32C-410.432 1072.2 -537.109 803.655 -506.237 763.531C-475.366 723.408 -348.721 991.996 -317.85 951.873C-286.978 911.749 -413.656 643.204 -382.801 603.102C-351.946 563 -225.268 831.546 -194.347 791.358C-163.426 751.17 -290.153 482.689 -259.298 442.587C-228.443 402.485 -101.749 671.009 -70.9597 630.993C-40.1708 590.977 -166.766 322.325 -135.811 282.094C-104.857 241.863 21.7047 510.559 52.5598 470.457C83.4149 430.355 -43.2296 161.767 -12.3745 121.665C18.4805 81.5629 145.141 350.13 176.013 310.006C206.885 269.883 80.2071 1.3377 111.062 -38.7642C141.917 -78.8661 268.595 189.679 299.466 149.556C330.338 109.432 203.66 -159.113 234.532 -199.236C265.404 -239.36 392.048 29.2287 422.92 -10.8946C453.791 -51.018 327.114 -319.563 357.985 -359.687C388.857 -399.81 515.501 -131.222 546.373 -171.345C577.245 -211.468 450.567 -480.014 481.439 -520.137C512.31 -560.261 638.955 -291.672 669.826 -331.796C700.698 -371.919 574.037 -640.486 604.892 -680.588C635.747 -720.69 762.425 -452.144 793.28 -492.246C824.135 -532.348 697.49 -800.936 728.345 -841.038C759.2 -881.14 885.878 -612.595 916.75 -652.718C947.621 -692.842 820.944 -961.387 851.815 -1001.51C882.687 -1041.63 1009.35 -773.067 1040.2 -813.169C1071.06 -853.271 944.413 -1121.86 975.285 -1161.98C1006.16 -1202.11 1132.82 -933.539 1163.69 -973.662C1194.56 -1013.79 1067.9 -1282.35 1098.75 -1322.45" stroke="#DFF49E" stroke-opacity="0.23" stroke-width="3" stroke-miterlimit="10"/>
<path d="M-419.906 2213.23C-389.051 2173.13 -262.39 2441.7 -231.518 2401.57C-200.647 2361.45 -327.324 2092.9 -296.453 2052.78C-265.581 2012.66 -138.937 2281.24 -108.065 2241.12C-77.1935 2201 -203.871 1932.45 -172.999 1892.33C-142.128 1852.21 -15.4834 2120.79 15.3882 2080.67C46.2598 2040.55 -80.4178 1772 -49.5462 1731.88C-18.6746 1691.76 107.97 1960.34 138.842 1920.22C169.713 1880.1 43.0356 1611.55 73.8907 1571.45C104.746 1531.35 231.423 1799.89 262.344 1759.71C293.266 1719.52 166.539 1451.04 197.394 1410.93C228.249 1370.83 354.943 1639.36 385.732 1599.34C416.521 1559.33 289.926 1290.67 320.88 1250.44C351.834 1210.21 478.396 1478.91 509.251 1438.8C540.106 1398.7 413.462 1130.11 444.317 1090.01C475.172 1049.91 601.833 1318.48 632.704 1278.35C663.576 1238.23 536.898 969.685 567.754 929.583C598.609 889.482 725.286 1158.03 756.158 1117.9C787.029 1077.78 660.352 809.235 691.223 769.112C722.095 728.988 848.74 997.576 879.611 957.453C910.483 917.33 783.805 648.784 814.677 608.661C845.548 568.538 972.193 837.126 1003.06 797.003C1033.94 756.879 907.259 488.334 938.13 448.21C969.002 408.087 1095.65 676.675 1126.52 636.552C1157.39 596.429 1030.73 327.862 1061.58 287.76C1092.44 247.658 1219.12 516.203 1249.97 476.101C1280.83 436 1154.18 167.411 1185.04 127.309C1215.89 87.2076 1342.57 355.753 1373.44 315.629C1404.31 275.506 1277.64 6.96074 1308.51 -33.1626C1339.38 -73.286 1466.04 195.281 1496.89 155.179C1527.75 115.077 1401.1 -153.511 1431.98 -193.634C1462.85 -233.758 1589.51 34.8088 1620.38 -5.3146C1651.25 -45.438 1524.59 -314.005 1555.45 -354.107" stroke="#DFF49E" stroke-opacity="0.23" stroke-width="3" stroke-miterlimit="10"/>
<path d="M-1009.91 962.214C-979.052 922.112 -852.391 1190.68 -821.52 1150.56C-790.648 1110.43 -917.326 841.887 -886.454 801.763C-855.582 761.64 -728.938 1030.23 -698.066 990.105C-667.195 949.982 -793.872 681.436 -763.001 641.313C-732.129 601.189 -605.485 869.778 -574.613 829.654C-543.741 789.531 -670.419 520.986 -639.547 480.862C-608.676 440.739 -482.031 709.327 -451.16 669.204C-420.288 629.081 -546.966 360.535 -516.111 320.433C-485.255 280.331 -358.578 548.877 -327.657 508.689C-296.736 468.501 -423.463 200.02 -392.608 159.918C-361.753 119.816 -235.058 388.34 -204.27 348.324C-173.481 308.308 -300.076 39.6557 -269.121 -0.575128C-238.167 -40.806 -111.605 227.89 -80.7501 187.788C-49.895 147.686 -176.539 -120.902 -145.684 -161.004C-114.829 -201.106 11.8316 67.4608 42.7032 27.3374C73.5748 -12.7859 -53.1027 -281.331 -22.2477 -321.433C8.60739 -361.535 135.285 -92.9898 166.157 -133.113C197.028 -173.237 70.3506 -441.782 101.222 -481.905C132.094 -522.028 258.738 -253.44 289.61 -293.564C320.481 -333.687 193.804 -602.232 224.676 -642.356C255.547 -682.479 382.192 -413.891 413.063 -454.014C443.935 -494.137 317.257 -762.683 348.129 -802.806C379.001 -842.93 505.645 -574.341 536.517 -614.465C567.388 -654.588 440.727 -923.155 471.582 -963.257C502.437 -1003.36 629.115 -734.813 659.97 -774.915C690.825 -815.017 564.18 -1083.61 595.035 -1123.71C625.891 -1163.81 752.568 -895.264 783.44 -935.387C814.311 -975.511 687.634 -1244.06 718.505 -1284.18C749.377 -1324.3 876.038 -1055.74 906.893 -1095.84C937.748 -1135.94 811.104 -1404.53 841.975 -1444.65C872.847 -1484.77 999.508 -1216.21 1030.38 -1256.33C1061.25 -1296.45 934.59 -1565.02 965.445 -1605.12" stroke="#DFF49E" stroke-opacity="0.23" stroke-width="3" stroke-miterlimit="10"/>
<path d="M-553.217 1930.56C-522.362 1890.46 -395.701 2159.03 -364.83 2118.9C-333.958 2078.78 -460.636 1810.24 -429.764 1770.11C-398.892 1729.99 -272.248 1998.58 -241.376 1958.45C-210.505 1918.33 -337.182 1649.78 -306.311 1609.66C-275.439 1569.54 -148.795 1838.13 -117.923 1798C-87.0515 1757.88 -213.729 1489.33 -182.857 1449.21C-151.986 1409.09 -25.3413 1677.68 5.53027 1637.55C36.4019 1597.43 -90.2757 1328.88 -59.4206 1288.78C-28.5656 1248.68 98.112 1517.23 129.033 1477.04C159.954 1436.85 33.2273 1168.37 64.0823 1128.27C94.9374 1088.17 221.631 1356.69 252.42 1316.67C283.209 1276.66 156.614 1008 187.569 967.774C218.523 927.543 345.085 1196.24 375.94 1156.14C406.795 1116.03 280.15 847.446 311.006 807.344C341.861 767.243 468.522 1035.81 499.393 995.686C530.265 955.563 403.587 687.017 434.442 646.916C465.297 606.814 591.975 875.359 622.847 835.235C653.718 795.112 527.041 526.567 557.912 486.444C588.784 446.32 715.428 714.908 746.3 674.785C777.171 634.662 650.494 366.116 681.365 325.993C712.237 285.87 838.882 554.458 869.753 514.335C900.625 474.211 773.947 205.666 804.819 165.542C835.69 125.419 962.335 394.007 993.206 353.884C1024.08 313.761 897.417 45.1938 928.272 5.09194C959.127 -35.0099 1085.8 233.535 1116.66 193.433C1147.51 153.332 1020.87 -115.257 1051.73 -155.359C1082.58 -195.46 1209.26 73.0849 1240.13 32.9615C1271 -7.16189 1144.32 -275.707 1175.2 -315.831C1206.07 -355.954 1332.73 -87.3871 1363.58 -127.489C1394.44 -167.591 1267.79 -436.179 1298.67 -476.302C1329.54 -516.426 1456.2 -247.859 1487.07 -287.983C1517.94 -328.106 1391.28 -596.673 1422.14 -636.775" stroke="#DFF49E" stroke-opacity="0.23" stroke-width="3" stroke-miterlimit="10"/>
<path d="M100.193 3316.03C131.048 3275.93 257.709 3544.49 288.581 3504.37C319.452 3464.25 192.775 3195.7 223.646 3155.58C254.518 3115.46 381.162 3384.04 412.034 3343.92C442.906 3303.8 316.228 3035.25 347.1 2995.13C377.971 2955 504.616 3223.59 535.487 3183.47C566.359 3143.35 439.681 2874.8 470.553 2834.68C501.425 2794.55 628.069 3063.14 658.941 3023.02C689.812 2982.9 563.135 2714.35 593.99 2674.25C624.845 2634.15 751.522 2902.69 782.444 2862.5C813.365 2822.32 686.638 2553.84 717.493 2513.73C748.348 2473.63 875.042 2742.16 905.831 2702.14C936.62 2662.12 810.025 2393.47 840.979 2353.24C871.933 2313.01 998.495 2581.71 1029.35 2541.6C1060.21 2501.5 933.561 2232.91 964.416 2192.81C995.271 2152.71 1121.93 2421.28 1152.8 2381.15C1183.68 2341.03 1057 2072.48 1087.85 2032.38C1118.71 1992.28 1245.39 2260.83 1276.26 2220.7C1307.13 2180.58 1180.45 1912.03 1211.32 1871.91C1242.19 1831.79 1368.84 2100.38 1399.71 2060.25C1430.58 2020.13 1303.9 1751.58 1334.78 1711.46C1365.65 1671.34 1492.29 1939.92 1523.16 1899.8C1554.04 1859.68 1427.36 1591.13 1458.23 1551.01C1489.1 1510.89 1615.75 1779.47 1646.62 1739.35C1677.49 1699.23 1550.83 1430.66 1581.68 1390.56C1612.54 1350.46 1739.22 1619 1770.07 1578.9C1800.93 1538.8 1674.28 1270.21 1705.14 1230.11C1735.99 1190.01 1862.67 1458.55 1893.54 1418.43C1924.41 1378.3 1797.73 1109.76 1828.61 1069.64C1859.48 1029.51 1986.14 1298.08 2016.99 1257.98C2047.85 1217.88 1921.2 949.288 1952.08 909.164C1982.95 869.041 2109.61 1137.61 2140.48 1097.48C2171.35 1057.36 2044.69 788.794 2075.55 748.692" stroke="#DFF49E" stroke-opacity="0.23" stroke-width="3" stroke-miterlimit="10"/>
<path d="M-749.936 1513.45C-719.081 1473.35 -592.42 1741.91 -561.548 1701.79C-530.677 1661.67 -657.354 1393.12 -626.483 1353C-595.611 1312.88 -468.966 1581.46 -438.095 1541.34C-407.223 1501.22 -533.901 1232.67 -503.029 1192.55C-472.158 1152.42 -345.513 1421.01 -314.642 1380.89C-283.77 1340.77 -410.447 1072.22 -379.576 1032.1C-348.704 991.974 -222.06 1260.56 -191.188 1220.44C-160.317 1180.32 -286.994 911.771 -256.139 871.669C-225.284 831.567 -98.6064 1100.11 -67.6852 1059.92C-36.764 1019.74 -163.491 751.256 -132.636 711.154C-101.781 671.052 24.913 939.576 55.7019 899.56C86.4909 859.544 -40.104 590.891 -9.14974 550.66C21.8045 510.429 148.366 779.125 179.221 739.023C210.076 698.921 83.432 430.333 114.287 390.231C145.142 350.129 271.803 618.696 302.675 578.573C333.546 538.449 206.869 269.904 237.724 229.802C268.579 189.7 395.256 458.246 426.128 418.122C457 377.999 330.322 109.454 361.194 69.3303C392.065 29.2069 518.71 297.795 549.581 257.672C580.453 217.548 453.775 -50.9969 484.647 -91.1203C515.519 -131.244 642.163 137.345 673.035 97.2213C703.906 57.0979 577.229 -211.448 608.1 -251.571C638.972 -291.694 765.616 -23.1059 796.488 -63.2293C827.36 -103.353 700.699 -371.919 731.554 -412.021C762.409 -452.123 889.086 -183.578 919.941 -223.68C950.796 -263.782 824.152 -532.37 855.007 -572.472C885.862 -612.574 1012.54 -344.028 1043.41 -384.152C1074.28 -424.275 947.605 -692.821 978.477 -732.944C1009.35 -773.067 1136.01 -504.5 1166.86 -544.602C1197.72 -584.704 1071.08 -853.292 1101.95 -893.416C1132.82 -933.539 1259.48 -664.972 1290.35 -705.096C1321.22 -745.219 1194.56 -1013.79 1225.42 -1053.89" stroke="#DFF49E" stroke-opacity="0.23" stroke-width="3" stroke-miterlimit="10"/>
<path d="M-96.5255 2898.91C-65.6704 2858.81 60.9906 3127.38 91.8622 3087.25C122.734 3047.13 -3.94372 2778.58 26.9279 2738.46C57.7995 2698.34 184.444 2966.93 215.316 2926.8C246.187 2886.68 119.51 2618.13 150.381 2578.01C181.253 2537.89 307.897 2806.48 338.769 2766.35C369.64 2726.23 242.963 2457.68 273.835 2417.56C304.706 2377.44 431.351 2646.02 462.222 2605.9C493.094 2565.78 366.416 2297.23 397.271 2257.13C428.126 2217.03 554.804 2485.57 585.725 2445.39C616.646 2405.2 489.919 2136.72 520.774 2096.62C551.629 2056.51 678.323 2325.04 709.112 2285.02C739.901 2245.01 613.306 1976.35 644.261 1936.12C675.215 1895.89 801.777 2164.59 832.632 2124.49C863.487 2084.38 736.842 1815.79 767.697 1775.69C798.553 1735.59 925.214 2004.16 956.085 1964.03C986.957 1923.91 860.279 1655.37 891.134 1615.26C921.989 1575.16 1048.67 1843.71 1079.54 1803.58C1110.41 1763.46 983.732 1494.92 1014.6 1454.79C1045.48 1414.67 1172.12 1683.26 1202.99 1643.13C1233.86 1603.01 1107.19 1334.46 1138.06 1294.34C1168.93 1254.22 1295.57 1522.81 1326.45 1482.68C1357.32 1442.56 1230.64 1174.01 1261.51 1133.89C1292.38 1093.77 1419.03 1362.36 1449.9 1322.23C1480.77 1282.11 1354.11 1013.54 1384.96 973.441C1415.82 933.339 1542.5 1201.88 1573.35 1161.78C1604.21 1121.68 1477.56 853.092 1508.42 812.99C1539.27 772.888 1665.95 1041.43 1696.82 1001.31C1727.69 961.187 1601.02 692.641 1631.89 652.518C1662.76 612.395 1789.42 880.962 1820.27 840.86C1851.13 800.758 1724.49 532.17 1755.36 492.046C1786.23 451.923 1912.89 720.489 1943.76 680.366C1974.63 640.243 1847.97 371.676 1878.83 331.574" stroke="#DFF49E" stroke-opacity="0.23" stroke-width="3" stroke-miterlimit="10"/>
<path d="M-293.245 2481.8C-262.39 2441.69 -135.728 2710.26 -104.857 2670.14C-73.9853 2630.02 -200.663 2361.47 -169.791 2321.35C-138.92 2281.22 -12.2752 2549.81 18.5964 2509.69C49.468 2469.56 -77.2095 2201.02 -46.3379 2160.9C-15.4663 2120.77 111.178 2389.36 142.05 2349.24C172.921 2309.11 46.2438 2040.57 77.1154 2000.45C107.987 1960.32 234.632 2228.91 265.503 2188.79C296.375 2148.66 169.697 1880.12 200.552 1840.02C231.407 1799.91 358.085 2068.46 389.006 2028.27C419.927 1988.08 293.2 1719.6 324.055 1679.5C354.91 1639.4 481.604 1907.92 512.393 1867.91C543.182 1827.89 416.587 1559.24 447.542 1519.01C478.496 1478.78 605.058 1747.47 635.913 1707.37C666.768 1667.27 540.123 1398.68 570.978 1358.58C601.833 1318.48 728.494 1587.04 759.366 1546.92C790.238 1506.8 663.56 1238.25 694.415 1198.15C725.27 1158.05 851.948 1426.59 882.819 1386.47C913.691 1346.35 787.013 1077.8 817.885 1037.68C848.757 997.555 975.401 1266.14 1006.27 1226.02C1037.14 1185.9 910.467 917.351 941.338 877.227C972.21 837.104 1098.85 1105.69 1129.73 1065.57C1160.6 1025.45 1033.92 756.9 1064.79 716.777C1095.66 676.653 1222.31 945.242 1253.18 905.118C1284.05 864.995 1157.39 596.428 1188.24 556.326C1219.1 516.224 1345.78 784.77 1376.63 744.668C1407.49 704.566 1280.84 435.978 1311.7 395.876C1342.55 355.774 1469.23 624.319 1500.1 584.196C1530.97 544.072 1404.3 275.527 1435.17 235.404C1466.04 195.28 1592.7 463.847 1623.56 423.745C1654.41 383.644 1527.77 115.055 1558.64 74.9319C1589.51 34.8086 1716.17 303.375 1747.04 263.252C1777.91 223.128 1651.25 -45.4383 1682.11 -85.5401" stroke="#DFF49E" stroke-opacity="0.23" stroke-width="3" stroke-miterlimit="10"/>
<path d="M-1073.32 827.767C-1042.46 787.665 -915.8 1056.23 -884.928 1016.11C-854.057 975.985 -980.734 707.439 -949.863 667.316C-918.991 627.193 -792.347 895.781 -761.475 855.658C-730.603 815.534 -857.281 546.989 -826.409 506.866C-795.538 466.742 -668.893 735.331 -638.022 695.207C-607.15 655.084 -733.828 386.538 -702.956 346.415C-672.084 306.292 -545.44 574.88 -514.568 534.757C-483.697 494.633 -610.374 226.088 -579.519 185.986C-548.664 145.884 -421.987 414.429 -391.065 374.242C-360.144 334.054 -486.871 65.573 -456.016 25.4711C-425.161 -14.6308 -298.467 253.893 -267.678 213.877C-236.889 173.861 -363.484 -94.7916 -332.53 -135.022C-301.576 -175.253 -175.014 93.4425 -144.159 53.3406C-113.304 13.2387 -239.948 -255.35 -209.093 -295.451C-178.238 -335.553 -51.577 -66.9865 -20.7054 -107.11C10.1662 -147.233 -116.511 -415.779 -85.6562 -455.88C-54.8012 -495.982 71.8764 -227.437 102.748 -267.56C133.62 -307.684 6.94199 -576.229 37.8136 -616.352C68.6852 -656.476 195.33 -387.887 226.201 -428.011C257.073 -468.134 130.395 -736.68 161.267 -776.803C192.139 -816.926 318.783 -548.338 349.655 -588.461C380.526 -628.585 253.849 -897.13 284.72 -937.254C315.592 -977.377 442.236 -708.789 473.108 -748.912C503.98 -789.035 377.319 -1057.6 408.174 -1097.7C439.029 -1137.81 565.706 -869.261 596.561 -909.362C627.416 -949.464 500.772 -1218.05 531.627 -1258.15C562.482 -1298.26 689.16 -1029.71 720.031 -1069.83C750.903 -1109.96 624.225 -1378.5 655.097 -1418.63C685.968 -1458.75 812.629 -1190.18 843.484 -1230.28C874.34 -1270.39 747.695 -1538.97 778.567 -1579.1C809.438 -1619.22 936.099 -1350.66 966.971 -1390.78C997.843 -1430.9 871.181 -1699.47 902.037 -1739.57" stroke="#DFF49E" stroke-opacity="0.23" stroke-width="3" stroke-miterlimit="10"/>
<path d="M-616.625 1796.12C-585.77 1756.01 -459.109 2024.58 -428.237 1984.46C-397.365 1944.33 -524.043 1675.79 -493.171 1635.67C-462.3 1595.54 -335.655 1864.13 -304.784 1824.01C-273.912 1783.88 -400.59 1515.34 -369.718 1475.22C-338.846 1435.09 -212.202 1703.68 -181.33 1663.56C-150.459 1623.43 -277.136 1354.89 -246.265 1314.76C-215.393 1274.64 -88.7486 1543.23 -57.877 1503.11C-27.0054 1462.98 -153.683 1194.44 -122.828 1154.34C-91.9728 1114.23 34.7048 1382.78 65.626 1342.59C96.5472 1302.4 -30.18 1033.92 0.67509 993.821C31.5302 953.719 158.224 1222.24 189.013 1182.23C219.802 1142.21 93.2072 873.558 124.161 833.327C155.116 793.096 281.678 1061.79 312.533 1021.69C343.388 981.588 216.743 713 247.598 672.898C278.453 632.796 405.114 901.363 435.986 861.24C466.858 821.116 340.18 552.571 371.035 512.469C401.89 472.367 528.568 740.913 559.439 700.789C590.311 660.666 463.633 392.121 494.505 351.997C525.376 311.874 652.021 580.462 682.893 540.339C713.764 500.215 587.087 231.67 617.958 191.547C648.83 151.423 775.474 420.012 806.346 379.888C837.217 339.765 710.54 71.2195 741.412 31.0961C772.283 -9.02728 898.928 259.561 929.799 219.438C960.671 179.314 834.01 -89.2525 864.865 -129.354C895.72 -169.456 1022.4 99.089 1053.25 58.9872C1084.11 18.8853 957.463 -249.703 988.318 -289.805C1019.17 -329.907 1145.85 -61.3614 1176.72 -101.485C1207.59 -141.608 1080.92 -410.154 1111.79 -450.277C1142.66 -490.4 1269.32 -221.833 1300.18 -261.935C1331.03 -302.037 1204.39 -570.625 1235.26 -610.749C1266.13 -650.872 1392.79 -382.305 1423.66 -422.429C1454.53 -462.552 1327.87 -731.119 1358.73 -771.221" stroke="#DFF49E" stroke-opacity="0.23" stroke-width="3" stroke-miterlimit="10"/>
<path d="M36.7858 3181.58C67.6408 3141.48 194.302 3410.05 225.173 3369.92C256.045 3329.8 129.368 3061.25 160.239 3021.13C191.111 2981.01 317.755 3249.59 348.627 3209.47C379.498 3169.35 252.821 2900.8 283.692 2860.68C314.564 2820.56 441.209 3089.14 472.08 3049.02C502.952 3008.9 376.274 2740.35 407.146 2700.23C438.017 2660.11 564.662 2928.69 595.533 2888.57C626.405 2848.45 499.727 2579.9 530.583 2539.8C561.438 2499.7 688.115 2768.24 719.036 2728.06C749.958 2687.87 623.23 2419.39 654.085 2379.28C684.941 2339.18 811.635 2607.71 842.424 2567.69C873.212 2527.67 746.618 2259.02 777.572 2218.79C808.526 2178.56 935.088 2447.26 965.943 2407.15C996.798 2367.05 870.154 2098.46 901.009 2058.36C931.864 2018.26 1058.52 2286.83 1089.4 2246.7C1120.27 2206.58 993.59 1938.03 1024.45 1897.93C1055.3 1857.83 1181.98 2126.38 1212.85 2086.25C1243.72 2046.13 1117.04 1777.58 1147.92 1737.46C1178.79 1697.34 1305.43 1965.93 1336.3 1925.8C1367.17 1885.68 1240.5 1617.13 1271.37 1577.01C1302.24 1536.89 1428.88 1805.48 1459.76 1765.35C1490.63 1725.23 1363.95 1456.68 1394.82 1416.56C1425.69 1376.44 1552.34 1645.02 1583.21 1604.9C1614.08 1564.78 1487.42 1296.21 1518.28 1256.11C1549.13 1216.01 1675.81 1484.55 1706.66 1444.45C1737.52 1404.35 1610.87 1135.76 1641.73 1095.66C1672.58 1055.56 1799.26 1324.1 1830.13 1283.98C1861 1243.86 1734.33 975.31 1765.2 935.187C1796.07 895.064 1922.73 1163.63 1953.59 1123.53C1984.44 1083.43 1857.8 814.839 1888.67 774.715C1919.54 734.592 2046.2 1003.16 2077.07 963.035C2107.94 922.912 1981.28 654.345 2012.14 614.243" stroke="#DFF49E" stroke-opacity="0.23" stroke-width="3" stroke-miterlimit="10"/>
<path d="M-813.343 1379C-782.488 1338.9 -655.827 1607.47 -624.955 1567.34C-594.084 1527.22 -720.761 1258.67 -689.89 1218.55C-659.018 1178.43 -532.374 1447.02 -501.502 1406.89C-470.63 1366.77 -597.308 1098.22 -566.436 1058.1C-535.565 1017.98 -408.92 1286.57 -378.049 1246.44C-347.177 1206.32 -473.855 937.774 -442.983 897.65C-412.112 857.527 -285.467 1126.12 -254.595 1085.99C-223.724 1045.87 -350.401 777.323 -319.546 737.221C-288.691 697.12 -162.014 965.665 -131.092 925.477C-100.171 885.289 -226.898 616.808 -196.043 576.706C-165.188 536.605 -38.4942 805.128 -7.70529 765.112C23.0836 725.097 -103.511 456.444 -72.557 416.213C-41.6027 375.982 84.9591 644.678 115.814 604.576C146.669 564.474 20.0248 295.886 50.8799 255.784C81.7349 215.682 208.396 484.249 239.267 444.126C270.139 404.002 143.462 135.457 174.317 95.355C205.172 55.2531 331.849 323.798 362.721 283.675C393.592 243.552 266.915 -24.9936 297.786 -65.117C328.658 -105.24 455.303 163.348 486.174 123.225C517.046 83.1011 390.368 -185.444 421.24 -225.568C452.111 -265.691 578.756 2.89743 609.627 -37.2259C640.499 -77.3493 513.822 -345.895 544.693 -386.018C575.565 -426.142 702.209 -157.553 733.081 -197.677C763.952 -237.8 637.291 -506.367 668.146 -546.469C699.002 -586.57 825.679 -318.025 856.534 -358.127C887.389 -398.229 760.745 -666.817 791.6 -706.919C822.455 -747.021 949.132 -478.476 980.004 -518.599C1010.88 -558.722 884.198 -827.268 915.07 -867.391C945.941 -907.515 1072.6 -638.948 1103.46 -679.05C1134.31 -719.151 1007.67 -987.74 1038.54 -1027.86C1069.41 -1067.99 1196.07 -799.42 1226.94 -839.543C1257.82 -879.666 1131.15 -1148.23 1162.01 -1188.34" stroke="#DFF49E" stroke-opacity="0.23" stroke-width="3" stroke-miterlimit="10"/>
<path d="M-159.933 2764.46C-129.078 2724.36 -2.41728 2992.93 28.4543 2952.81C59.3259 2912.68 -67.3516 2644.14 -36.48 2604.01C-5.60842 2563.89 121.036 2832.48 151.908 2792.35C182.779 2752.23 56.1017 2483.69 86.9733 2443.56C117.845 2403.44 244.489 2672.03 275.361 2631.9C306.233 2591.78 179.555 2323.24 210.427 2283.11C241.298 2242.99 367.943 2511.58 398.814 2471.45C429.686 2431.33 303.008 2162.79 333.863 2122.68C364.718 2082.58 491.396 2351.13 522.317 2310.94C553.238 2270.75 426.511 2002.27 457.366 1962.17C488.221 1922.07 614.916 2190.59 645.704 2150.57C676.493 2110.56 549.898 1841.91 580.853 1801.67C611.807 1761.44 738.369 2030.14 769.224 1990.04C800.079 1949.94 673.435 1681.35 704.29 1641.25C735.145 1601.14 861.806 1869.71 892.677 1829.59C923.549 1789.46 796.871 1520.92 827.726 1480.82C858.581 1440.71 985.259 1709.26 1016.13 1669.14C1047 1629.01 920.325 1360.47 951.196 1320.34C982.068 1280.22 1108.71 1548.81 1139.58 1508.69C1170.46 1468.56 1043.78 1200.02 1074.65 1159.89C1105.52 1119.77 1232.17 1388.36 1263.04 1348.24C1293.91 1308.11 1167.23 1039.57 1198.1 999.444C1228.97 959.32 1355.62 1227.91 1386.49 1187.79C1417.36 1147.66 1290.7 879.095 1321.56 838.993C1352.41 798.891 1479.09 1067.44 1509.94 1027.33C1540.8 987.233 1414.15 718.645 1445.01 678.543C1475.86 638.441 1602.54 906.986 1633.41 866.863C1664.29 826.739 1537.61 558.194 1568.48 518.071C1599.35 477.947 1726.01 746.514 1756.87 706.412C1787.72 666.311 1661.08 397.722 1691.95 357.599C1722.82 317.476 1849.48 586.042 1880.35 545.919C1911.23 505.795 1784.56 237.229 1815.42 197.127" stroke="#DFF49E" stroke-opacity="0.23" stroke-width="3" stroke-miterlimit="10"/>
<path d="M-356.653 2347.35C-325.798 2307.25 -199.137 2575.81 -168.265 2535.69C-137.394 2495.57 -264.071 2227.02 -233.2 2186.9C-202.328 2146.78 -75.6837 2415.36 -44.8121 2375.24C-13.9405 2335.12 -140.618 2066.57 -109.746 2026.45C-78.8748 1986.33 47.7697 2254.91 78.6413 2214.79C109.513 2174.67 -17.1647 1906.12 13.7069 1866C44.5785 1825.87 171.223 2094.46 202.095 2054.34C232.966 2014.22 106.289 1745.67 137.144 1705.57C167.999 1665.47 294.676 1934.01 325.598 1893.82C356.519 1853.64 229.792 1585.16 260.647 1545.05C291.502 1504.95 418.196 1773.48 448.985 1733.46C479.774 1693.44 353.179 1424.79 384.133 1384.56C415.087 1344.33 541.649 1613.03 572.504 1572.92C603.359 1532.82 476.715 1264.23 507.57 1224.13C538.425 1184.03 665.086 1452.6 695.957 1412.47C726.829 1372.35 600.152 1103.8 631.007 1063.7C661.862 1023.6 788.539 1292.15 819.411 1252.02C850.282 1211.9 723.605 943.354 754.476 903.231C785.348 863.107 911.993 1131.7 942.864 1091.57C973.736 1051.45 847.058 782.903 877.93 742.78C908.801 702.657 1035.45 971.245 1066.32 931.122C1097.19 890.998 970.512 622.453 1001.38 582.329C1032.25 542.206 1158.9 810.795 1189.77 770.671C1220.64 730.548 1093.98 461.981 1124.84 421.879C1155.69 381.777 1282.37 650.322 1313.22 610.221C1344.08 570.119 1217.43 301.53 1248.29 261.429C1279.14 221.327 1405.82 489.872 1436.69 449.749C1467.57 409.625 1340.89 141.08 1371.76 100.957C1402.63 60.8331 1529.29 329.4 1560.15 289.298C1591 249.196 1464.36 -19.3919 1495.23 -59.5153C1526.1 -99.6387 1652.76 168.928 1683.63 128.805C1714.51 88.6812 1587.84 -179.886 1618.7 -219.987" stroke="#DFF49E" stroke-opacity="0.23" stroke-width="3" stroke-miterlimit="10"/>
<path d="M-946.654 1096.33C-915.799 1056.23 -789.138 1324.8 -758.267 1284.68C-727.395 1244.55 -854.073 976.007 -823.201 935.883C-792.329 895.76 -665.685 1164.35 -634.813 1124.23C-603.942 1084.1 -730.619 815.556 -699.748 775.433C-668.876 735.31 -542.232 1003.9 -511.36 963.775C-480.488 923.651 -607.166 655.106 -576.294 614.982C-545.423 574.859 -418.778 843.447 -387.907 803.324C-357.035 763.201 -483.713 494.655 -452.858 454.553C-422.002 414.452 -295.325 682.997 -264.404 642.809C-233.482 602.621 -360.21 334.14 -329.355 294.038C-298.5 253.937 -171.805 522.46 -141.017 482.445C-110.228 442.429 -236.822 173.776 -205.868 133.545C-174.914 93.3142 -48.3521 362.01 -17.497 321.908C13.358 281.806 -113.286 13.2178 -82.4314 -26.8841C-51.5763 -66.986 75.0847 201.581 105.956 161.458C136.828 121.334 10.1503 -147.211 41.0054 -187.313C71.8604 -227.415 198.538 41.1304 229.41 1.00698C260.281 -39.1164 133.604 -307.662 164.475 -347.785C195.347 -387.908 321.991 -119.32 352.863 -159.443C383.735 -199.567 257.057 -468.112 287.929 -508.236C318.8 -548.359 445.445 -279.771 476.316 -319.894C507.188 -360.017 380.51 -628.563 411.382 -668.686C442.254 -708.81 568.898 -440.221 599.77 -480.344C630.641 -520.468 503.98 -789.035 534.835 -829.137C565.69 -869.238 692.368 -600.693 723.223 -640.795C754.078 -680.897 627.433 -949.485 658.289 -989.587C689.144 -1029.69 815.821 -761.144 846.693 -801.267C877.564 -841.39 750.887 -1109.94 781.758 -1150.06C812.63 -1190.18 939.291 -921.616 970.146 -961.717C1001 -1001.82 874.357 -1270.41 905.228 -1310.53C936.1 -1350.65 1062.76 -1082.09 1093.63 -1122.21C1124.5 -1162.33 997.843 -1430.9 1028.7 -1471" stroke="#DFF49E" stroke-opacity="0.23" stroke-width="3" stroke-miterlimit="10"/>
<path d="M-489.963 2064.68C-459.108 2024.58 -332.447 2293.15 -301.575 2253.02C-270.704 2212.9 -397.381 1944.36 -366.51 1904.23C-335.638 1864.11 -208.994 2132.7 -178.122 2092.57C-147.25 2052.45 -273.928 1783.9 -243.056 1743.78C-212.185 1703.66 -85.5403 1972.25 -54.6687 1932.12C-23.7971 1892 -150.475 1623.45 -119.603 1583.33C-88.7314 1543.21 37.9131 1811.8 68.7847 1771.67C99.6563 1731.55 -27.0213 1463 3.83377 1422.9C34.6888 1382.8 161.366 1651.35 192.288 1611.16C223.209 1570.97 96.4816 1302.49 127.337 1262.39C158.192 1222.29 284.886 1490.81 315.675 1450.79C346.464 1410.78 219.869 1142.12 250.823 1101.89C281.777 1061.66 408.339 1330.36 439.194 1290.26C470.049 1250.15 343.405 981.566 374.26 941.465C405.115 901.363 531.776 1169.93 562.648 1129.81C593.519 1089.68 466.842 821.138 497.697 781.036C528.552 740.934 655.229 1009.48 686.101 969.356C716.973 929.232 590.295 660.687 621.166 620.564C652.038 580.44 778.683 849.029 809.554 808.905C840.426 768.782 713.748 500.236 744.62 460.113C775.491 419.99 902.136 688.578 933.008 648.455C963.879 608.331 837.202 339.786 868.073 299.663C898.945 259.539 1025.59 528.128 1056.46 488.004C1087.33 447.881 960.671 179.314 991.527 139.212C1022.38 99.1102 1149.06 367.655 1179.91 327.554C1210.77 287.452 1084.12 18.8635 1114.98 -21.2384C1145.83 -61.3403 1272.51 207.205 1303.38 167.082C1334.26 126.958 1207.58 -141.587 1238.45 -181.71C1269.32 -221.834 1395.98 46.733 1426.84 6.63115C1457.69 -33.4707 1331.05 -302.059 1361.92 -342.182C1392.79 -382.306 1519.45 -113.739 1550.32 -153.862C1581.2 -193.986 1454.53 -462.553 1485.39 -502.654" stroke="#DFF49E" stroke-opacity="0.23" stroke-width="3" stroke-miterlimit="10"/>
<path d="M-686.682 1647.57C-655.827 1607.47 -529.166 1876.03 -498.294 1835.91C-467.423 1795.79 -594.1 1527.24 -563.229 1487.12C-532.357 1446.99 -405.713 1715.58 -374.841 1675.46C-343.969 1635.34 -470.647 1366.79 -439.775 1326.67C-408.904 1286.54 -282.259 1555.13 -251.388 1515.01C-220.516 1474.89 -347.194 1206.34 -316.322 1166.22C-285.45 1126.09 -158.806 1394.68 -127.934 1354.56C-97.0628 1314.44 -223.74 1045.89 -192.885 1005.79C-162.03 965.686 -35.3527 1234.23 -4.43146 1194.04C26.4898 1153.86 -100.237 885.375 -69.3823 845.273C-38.5273 805.171 88.1668 1073.69 118.956 1033.68C149.745 993.663 23.1498 725.01 54.104 684.779C85.0583 644.549 211.62 913.244 242.475 873.142C273.33 833.041 146.686 564.452 177.541 524.35C208.396 484.248 335.057 752.815 365.928 712.692C396.8 672.569 270.123 404.023 300.978 363.921C331.833 323.819 458.51 592.365 489.382 552.241C520.253 512.118 393.576 243.573 424.447 203.449C455.319 163.326 581.964 431.914 612.835 391.791C643.707 351.668 517.029 83.1222 547.901 42.9988C578.772 2.87545 705.417 271.464 736.288 231.34C767.16 191.217 640.483 -77.3284 671.354 -117.452C702.226 -157.575 828.87 111.013 859.742 70.8899C890.613 30.7665 763.952 -237.8 794.807 -277.902C825.663 -318.004 952.34 -49.4588 983.195 -89.5607C1014.05 -129.663 887.406 -398.251 918.261 -438.353C949.116 -478.455 1075.79 -209.909 1106.67 -250.033C1137.54 -290.156 1010.86 -558.701 1041.73 -598.825C1072.6 -638.948 1199.26 -370.381 1230.12 -410.483C1260.97 -450.585 1134.33 -719.173 1165.2 -759.297C1196.07 -799.42 1322.73 -530.853 1353.6 -570.977C1384.48 -611.1 1257.82 -879.667 1288.67 -919.769" stroke="#DFF49E" stroke-opacity="0.23" stroke-width="3" stroke-miterlimit="10"/>
<path d="M-33.273 3033.03C-2.41795 2992.93 124.243 3261.5 155.115 3221.38C185.986 3181.25 59.3087 2912.71 90.1803 2872.58C121.052 2832.46 247.696 3101.05 278.568 3060.93C309.44 3020.8 182.762 2752.26 213.634 2712.13C244.505 2672.01 371.15 2940.6 402.021 2900.47C432.893 2860.35 306.215 2591.81 337.087 2551.68C367.959 2511.56 494.603 2780.15 525.475 2740.02C556.346 2699.9 429.669 2431.36 460.524 2391.25C491.379 2351.15 618.056 2619.7 648.978 2579.51C679.899 2539.32 553.172 2270.84 584.027 2230.74C614.882 2190.64 741.576 2459.16 772.365 2419.14C803.154 2379.13 676.559 2110.48 707.513 2070.25C738.467 2030.01 865.029 2298.71 895.884 2258.61C926.739 2218.51 800.095 1949.92 830.95 1909.82C861.805 1869.71 988.466 2138.28 1019.34 2098.16C1050.21 2058.03 923.532 1789.49 954.387 1749.39C985.242 1709.29 1111.92 1977.83 1142.79 1937.71C1173.66 1897.58 1046.98 1629.04 1077.86 1588.92C1108.73 1548.79 1235.37 1817.38 1266.24 1777.26C1297.12 1737.13 1170.44 1468.59 1201.31 1428.46C1232.18 1388.34 1358.83 1656.93 1389.7 1616.81C1420.57 1576.68 1293.89 1308.14 1324.76 1268.01C1355.63 1227.89 1482.28 1496.48 1513.15 1456.36C1544.02 1416.23 1417.36 1147.67 1448.22 1107.56C1479.07 1067.46 1605.75 1336.01 1636.6 1295.91C1667.46 1255.8 1540.81 987.215 1571.67 947.113C1602.52 907.011 1729.2 1175.56 1760.07 1135.43C1790.95 1095.31 1664.27 826.764 1695.14 786.641C1726.01 746.518 1852.67 1015.08 1883.53 974.983C1914.38 934.881 1787.74 666.293 1818.61 626.169C1849.48 586.046 1976.14 854.612 2007.01 814.489C2037.89 774.366 1911.22 505.799 1942.08 465.697" stroke="#DFF49E" stroke-opacity="0.23" stroke-width="3" stroke-miterlimit="10"/>
<path d="M-229.991 2615.92C-199.136 2575.81 -72.4754 2844.38 -41.6038 2804.26C-10.7322 2764.13 -137.41 2495.59 -106.538 2455.47C-75.6665 2415.34 50.9779 2683.93 81.8495 2643.81C112.721 2603.68 -13.9564 2335.14 16.9152 2295.01C47.7868 2254.89 174.431 2523.48 205.303 2483.36C236.174 2443.23 109.497 2174.69 140.369 2134.56C171.24 2094.44 297.885 2363.03 328.756 2322.91C359.628 2282.78 232.95 2014.24 263.805 1974.14C294.66 1934.03 421.338 2202.58 452.259 2162.39C483.18 2122.2 356.453 1853.72 387.308 1813.62C418.163 1773.52 544.857 2042.04 575.646 2002.03C606.435 1962.01 479.84 1693.36 510.795 1653.13C541.749 1612.9 668.311 1881.59 699.166 1841.49C730.021 1801.39 603.376 1532.8 634.231 1492.7C665.087 1452.6 791.748 1721.16 822.619 1681.04C853.491 1640.92 726.813 1372.37 757.668 1332.27C788.523 1292.17 915.201 1560.71 946.072 1520.59C976.944 1480.47 850.266 1211.92 881.138 1171.8C912.01 1131.67 1038.65 1400.26 1069.53 1360.14C1100.4 1320.02 973.72 1051.47 1004.59 1011.35C1035.46 971.223 1162.11 1239.81 1192.98 1199.69C1223.85 1159.56 1097.17 891.019 1128.04 850.896C1158.92 810.773 1285.56 1079.36 1316.43 1039.24C1347.3 999.114 1220.64 730.547 1251.5 690.445C1282.35 650.344 1409.03 918.889 1439.89 878.787C1470.74 838.685 1344.1 570.097 1374.95 529.995C1405.81 489.893 1532.48 758.438 1563.36 718.315C1594.23 678.192 1467.55 409.646 1498.42 369.523C1529.29 329.4 1655.95 597.966 1686.81 557.865C1717.66 517.763 1591.02 249.174 1621.89 209.051C1652.76 168.928 1779.42 437.494 1810.3 397.371C1841.17 357.248 1714.51 88.6809 1745.36 48.579" stroke="#DFF49E" stroke-opacity="0.23" stroke-width="3" stroke-miterlimit="10"/>
</g>
<defs>
<clipPath id="clip0_245_15883">
<rect width="1665" height="2764" fill="white" transform="translate(-40 -86)"/>
</clipPath>
</defs>
</svg>
