<svg width="1440" height="13" viewBox="0 0 1440 13" fill="none" xmlns="http://www.w3.org/2000/svg">
  <circle cx="1.5" cy="1.5" r="1.5" fill="#383C3D"/>
  <circle cx="14.5" cy="1.5" r="1.5" fill="#383C3D"/>
  <circle cx="27.5" cy="1.5" r="1.5" fill="#383C3D"/>
  <circle cx="40.5" cy="1.5" r="1.5" fill="#383C3D"/>
  <circle cx="53.5" cy="1.5" r="1.5" fill="#383C3D"/>
  <circle cx="66.5" cy="1.5" r="1.5" fill="#383C3D"/>
  <circle cx="79.5" cy="1.5" r="1.5" fill="#383C3D"/>
  <circle cx="92.5" cy="1.5" r="1.5" fill="#383C3D"/>
  <circle cx="105.5" cy="1.5" r="1.5" fill="#383C3D"/>
  <circle cx="118.5" cy="1.5" r="1.5" fill="#383C3D"/>
  <circle cx="131.5" cy="1.5" r="1.5" fill="#383C3D"/>
  <circle cx="144.5" cy="1.5" r="1.5" fill="#383C3D"/>
  <circle cx="157.5" cy="1.5" r="1.5" fill="#383C3D"/>
  <circle cx="170.5" cy="1.5" r="1.5" fill="#383C3D"/>
  <circle cx="183.5" cy="1.5" r="1.5" fill="#383C3D"/>
  <circle cx="196.5" cy="1.5" r="1.5" fill="#383C3D"/>
  <circle cx="209.5" cy="1.5" r="1.5" fill="#383C3D"/>
  <circle cx="222.5" cy="1.5" r="1.5" fill="#383C3D"/>
  <circle cx="235.5" cy="1.5" r="1.5" fill="#383C3D"/>
  <circle cx="248.5" cy="1.5" r="1.5" fill="#383C3D"/>
  <circle cx="261.5" cy="1.5" r="1.5" fill="#383C3D"/>
  <circle cx="274.5" cy="1.5" r="1.5" fill="#383C3D"/>
  <circle cx="287.5" cy="1.5" r="1.5" fill="#383C3D"/>
  <circle cx="300.5" cy="1.5" r="1.5" fill="#383C3D"/>
  <circle cx="313.5" cy="1.5" r="1.5" fill="#383C3D"/>
  <circle cx="326.5" cy="1.5" r="1.5" fill="#383C3D"/>
  <circle cx="339.5" cy="1.5" r="1.5" fill="#383C3D"/>
  <circle cx="352.5" cy="1.5" r="1.5" fill="#383C3D"/>
  <circle cx="365.5" cy="1.5" r="1.5" fill="#383C3D"/>
  <circle cx="378.5" cy="1.5" r="1.5" fill="#383C3D"/>
  <circle cx="391.5" cy="1.5" r="1.5" fill="#383C3D"/>
  <circle cx="404.5" cy="1.5" r="1.5" fill="#383C3D"/>
  <circle cx="417.5" cy="1.5" r="1.5" fill="#383C3D"/>
  <circle cx="430.5" cy="1.5" r="1.5" fill="#383C3D"/>
  <circle cx="443.5" cy="1.5" r="1.5" fill="#383C3D"/>
  <circle cx="456.5" cy="1.5" r="1.5" fill="#383C3D"/>
  <circle cx="469.5" cy="1.5" r="1.5" fill="#383C3D"/>
  <circle cx="482.5" cy="1.5" r="1.5" fill="#383C3D"/>
  <circle cx="495.5" cy="1.5" r="1.5" fill="#383C3D"/>
  <circle cx="508.5" cy="1.5" r="1.5" fill="#383C3D"/>
  <circle cx="521.5" cy="1.5" r="1.5" fill="#383C3D"/>
  <circle cx="534.5" cy="1.5" r="1.5" fill="#383C3D"/>
  <circle cx="547.5" cy="1.5" r="1.5" fill="#383C3D"/>
  <circle cx="560.5" cy="1.5" r="1.5" fill="#383C3D"/>
  <circle cx="573.5" cy="1.5" r="1.5" fill="#383C3D"/>
  <circle cx="586.5" cy="1.5" r="1.5" fill="#383C3D"/>
  <circle cx="599.5" cy="1.5" r="1.5" fill="#383C3D"/>
  <circle cx="612.5" cy="1.5" r="1.5" fill="#383C3D"/>
  <circle cx="625.5" cy="1.5" r="1.5" fill="#383C3D"/>
  <circle cx="638.5" cy="1.5" r="1.5" fill="#383C3D"/>
  <circle cx="651.5" cy="1.5" r="1.5" fill="#383C3D"/>
  <circle cx="664.5" cy="1.5" r="1.5" fill="#383C3D"/>
  <circle cx="677.5" cy="1.5" r="1.5" fill="#383C3D"/>
  <circle cx="690.5" cy="1.5" r="1.5" fill="#383C3D"/>
  <circle cx="703.5" cy="1.5" r="1.5" fill="#383C3D"/>
  <circle cx="716.5" cy="1.5" r="1.5" fill="#383C3D"/>
  <circle cx="729.5" cy="1.5" r="1.5" fill="#383C3D"/>
  <circle cx="742.5" cy="1.5" r="1.5" fill="#383C3D"/>
  <circle cx="755.5" cy="1.5" r="1.5" fill="#383C3D"/>
  <circle cx="768.5" cy="1.5" r="1.5" fill="#383C3D"/>
  <circle cx="781.5" cy="1.5" r="1.5" fill="#383C3D"/>
  <circle cx="794.5" cy="1.5" r="1.5" fill="#383C3D"/>
  <circle cx="807.5" cy="1.5" r="1.5" fill="#383C3D"/>
  <circle cx="820.5" cy="1.5" r="1.5" fill="#383C3D"/>
  <circle cx="833.5" cy="1.5" r="1.5" fill="#383C3D"/>
  <circle cx="846.5" cy="1.5" r="1.5" fill="#383C3D"/>
  <circle cx="859.5" cy="1.5" r="1.5" fill="#383C3D"/>
  <circle cx="872.5" cy="1.5" r="1.5" fill="#383C3D"/>
  <circle cx="885.5" cy="1.5" r="1.5" fill="#383C3D"/>
  <circle cx="898.5" cy="1.5" r="1.5" fill="#383C3D"/>
  <circle cx="911.5" cy="1.5" r="1.5" fill="#383C3D"/>
  <circle cx="924.5" cy="1.5" r="1.5" fill="#383C3D"/>
  <circle cx="937.5" cy="1.5" r="1.5" fill="#383C3D"/>
  <circle cx="950.5" cy="1.5" r="1.5" fill="#383C3D"/>
  <circle cx="963.5" cy="1.5" r="1.5" fill="#383C3D"/>
  <circle cx="976.5" cy="1.5" r="1.5" fill="#383C3D"/>
  <circle cx="989.5" cy="1.5" r="1.5" fill="#383C3D"/>
  <circle cx="1002.5" cy="1.5" r="1.5" fill="#383C3D"/>
  <circle cx="1015.5" cy="1.5" r="1.5" fill="#383C3D"/>
  <circle cx="1028.5" cy="1.5" r="1.5" fill="#383C3D"/>
  <circle cx="1041.5" cy="1.5" r="1.5" fill="#383C3D"/>
  <circle cx="1054.5" cy="1.5" r="1.5" fill="#383C3D"/>
  <circle cx="1067.5" cy="1.5" r="1.5" fill="#383C3D"/>
  <circle cx="1080.5" cy="1.5" r="1.5" fill="#383C3D"/>
  <circle cx="1093.5" cy="1.5" r="1.5" fill="#383C3D"/>
  <circle cx="1106.5" cy="1.5" r="1.5" fill="#383C3D"/>
  <circle cx="1119.5" cy="1.5" r="1.5" fill="#383C3D"/>
  <circle cx="1132.5" cy="1.5" r="1.5" fill="#383C3D"/>
  <circle cx="1145.5" cy="1.5" r="1.5" fill="#383C3D"/>
  <circle cx="1158.5" cy="1.5" r="1.5" fill="#383C3D"/>
  <circle cx="1171.5" cy="1.5" r="1.5" fill="#383C3D"/>
  <circle cx="1184.5" cy="1.5" r="1.5" fill="#383C3D"/>
  <circle cx="1197.5" cy="1.5" r="1.5" fill="#383C3D"/>
  <circle cx="1210.5" cy="1.5" r="1.5" fill="#383C3D"/>
  <circle cx="1223.5" cy="1.5" r="1.5" fill="#383C3D"/>
  <circle cx="1236.5" cy="1.5" r="1.5" fill="#383C3D"/>
  <circle cx="1249.5" cy="1.5" r="1.5" fill="#383C3D"/>
  <circle cx="1262.5" cy="1.5" r="1.5" fill="#383C3D"/>
  <circle cx="1275.5" cy="1.5" r="1.5" fill="#383C3D"/>
  <circle cx="1288.5" cy="1.5" r="1.5" fill="#383C3D"/>
  <circle cx="1301.5" cy="1.5" r="1.5" fill="#383C3D"/>
  <circle cx="1314.5" cy="1.5" r="1.5" fill="#383C3D"/>
  <circle cx="1327.5" cy="1.5" r="1.5" fill="#383C3D"/>
  <circle cx="1340.5" cy="1.5" r="1.5" fill="#383C3D"/>
  <circle cx="1353.5" cy="1.5" r="1.5" fill="#383C3D"/>
  <circle cx="1366.5" cy="1.5" r="1.5" fill="#383C3D"/>
  <circle cx="1379.5" cy="1.5" r="1.5" fill="#383C3D"/>
  <circle cx="1392.5" cy="1.5" r="1.5" fill="#383C3D"/>
  <circle cx="1405.5" cy="1.5" r="1.5" fill="#383C3D"/>
  <circle cx="1418.5" cy="1.5" r="1.5" fill="#383C3D"/>
  <circle cx="1431.5" cy="1.5" r="1.5" fill="#383C3D"/>
</svg>
