<svg width="86" height="84" viewBox="0 0 86 84" fill="none" xmlns="http://www.w3.org/2000/svg">
<g filter="url(#filter0_d_245_29047)">
<path d="M6.5 2.5H27.1522C34.0557 2.5 39.6522 8.09644 39.6522 15V34.1265H19C12.0964 34.1265 6.5 28.5301 6.5 21.6265V2.5Z" stroke="black" stroke-width="5"/>
<path d="M6.5 73.5H27.1522C34.0557 73.5 39.6522 67.9036 39.6522 61V41.8735H19C12.0964 41.8735 6.5 47.4699 6.5 54.3735V73.5Z" stroke="#CDFF63" stroke-width="5"/>
<path d="M79.5 2.5H58.8478C51.9443 2.5 46.3478 8.09644 46.3478 15V34.1265H67C73.9036 34.1265 79.5 28.5301 79.5 21.6265V2.5Z" stroke="#CDFF63" stroke-width="5"/>
<path d="M79.5 73.5H58.8478C51.9443 73.5 46.3478 67.9036 46.3478 61V41.8735H67C73.9036 41.8735 79.5 47.4699 79.5 54.3735V73.5Z" stroke="black" stroke-width="5"/>
</g>
<defs>
<filter id="filter0_d_245_29047" x="0" y="0" width="86" height="84" filterUnits="userSpaceOnUse" color-interpolation-filters="sRGB">
<feFlood flood-opacity="0" result="BackgroundImageFix"/>
<feColorMatrix in="SourceAlpha" type="matrix" values="0 0 0 0 0 0 0 0 0 0 0 0 0 0 0 0 0 0 127 0" result="hardAlpha"/>
<feOffset dy="4"/>
<feGaussianBlur stdDeviation="2"/>
<feComposite in2="hardAlpha" operator="out"/>
<feColorMatrix type="matrix" values="0 0 0 0 0 0 0 0 0 0 0 0 0 0 0 0 0 0 0.25 0"/>
<feBlend mode="normal" in2="BackgroundImageFix" result="effect1_dropShadow_245_29047"/>
<feBlend mode="normal" in="SourceGraphic" in2="effect1_dropShadow_245_29047" result="shape"/>
</filter>
</defs>
</svg>
