<svg width="199" height="81" viewBox="0 0 199 81" fill="none" xmlns="http://www.w3.org/2000/svg">
<rect x="7" y="7" width="185" height="68" stroke="#CDFF63" stroke-width="4"/>
<rect x="1.5" y="66.5" width="12" height="12" fill="white"/>
<rect x="1.5" y="66.5" width="12" height="12" fill="white"/>
<rect x="1.5" y="66.5" width="12" height="12" fill="white"/>
<rect x="1.5" y="66.5" width="12" height="12" stroke="#CDFF63" stroke-width="3"/>
<rect x="185.5" y="67.5" width="12" height="12" fill="white"/>
<rect x="185.5" y="67.5" width="12" height="12" fill="white"/>
<rect x="185.5" y="67.5" width="12" height="12" fill="white"/>
<rect x="185.5" y="67.5" width="12" height="12" stroke="#CDFF63" stroke-width="3"/>
<rect x="185.5" y="1.5" width="12" height="12" fill="white"/>
<rect x="185.5" y="1.5" width="12" height="12" fill="white"/>
<rect x="185.5" y="1.5" width="12" height="12" fill="white"/>
<rect x="185.5" y="1.5" width="12" height="12" stroke="#CDFF63" stroke-width="3"/>
<rect x="1.5" y="2.5" width="12" height="12" fill="white"/>
<rect x="1.5" y="2.5" width="12" height="12" fill="white"/>
<rect x="1.5" y="2.5" width="12" height="12" fill="white"/>
<rect x="1.5" y="2.5" width="12" height="12" stroke="#CDFF63" stroke-width="3"/>
</svg>
